<svg xmlns="http://www.w3.org/2000/svg" viewBox="0 0 800 800">
  <rect width="800" height="800" fill="transparent"/>
  <g transform="translate(100, 0) scale(1.2)">
    <path d="M240,170 L240,730 Q240,750 260,750 L440,750 Q460,750 460,730 L460,170 Q460,150 440,150 L260,150 Q240,150 240,170 Z" fill="#F5A623" stroke="#1D1D1D" stroke-width="15"/>
    <rect x="310" y="700" width="80" height="20" rx="5" ry="5" fill="#C87619"/>
    <path d="M240,170 L240,250 L460,250 L460,170 Q460,150 440,150 L260,150 Q240,150 240,170 Z" fill="#F5A623" stroke="#1D1D1D" stroke-width="15"/>
    <path d="M219,190 L219,210 L481,210 L481,190 Z" fill="#F5A623" stroke="#1D1D1D" stroke-width="15"/>
    <path d="M230,150 L470,150 L470,130 L230,130 Z" fill="#F5A623" stroke="#1D1D1D" stroke-width="15"/>
    <path d="M520,600 L390,470 L370,490 L500,620 Z" fill="#664a2b" stroke="#1D1D1D" stroke-width="15"/>
    <rect x="510" y="400" width="50" height="200" rx="10" ry="10" transform="rotate(45, 535, 500)" fill="#664a2b" stroke="#1D1D1D" stroke-width="15"/>
    <rect x="410" y="300" width="100" height="70" rx="10" ry="10" transform="rotate(45, 460, 335)" fill="#999" stroke="#1D1D1D" stroke-width="15"/>
    <rect x="440" y="330" width="40" height="10" rx="5" ry="5" transform="rotate(45, 460, 335)" fill="#666"/>
    <path d="M345,335 L370,310 L400,340 L375,365 Z" fill="#999" stroke="#1D1D1D" stroke-width="15"/>
    <line x1="290" y1="570" x2="330" y2="530" stroke="#F5A623" stroke-width="10" stroke-linecap="round"/>
    <line x1="350" y1="510" x2="390" y2="470" stroke="#F5A623" stroke-width="10" stroke-linecap="round"/>
    <line x1="355" y1="625" x2="385" y2="595" stroke="#F5A623" stroke-width="10" stroke-linecap="round"/>
    <line x1="410" y1="570" x2="440" y2="540" stroke="#F5A623" stroke-width="10" stroke-linecap="round"/>
    <path d="M525,225 L575,175 L590,190 L540,240 Z" fill="#F5A623"/>
    <path d="M525,225 L575,175 L590,190 L540,240 Z" fill="none" stroke="#1D1D1D" stroke-width="8"/>
    <path d="M365,125 L415,75 L430,90 L380,140 Z" fill="#F5A623"/>
    <path d="M365,125 L415,75 L430,90 L380,140 Z" fill="none" stroke="#1D1D1D" stroke-width="8"/>
    <path d="M455,395 L505,345 L520,360 L470,410 Z" fill="#F5A623"/>
    <path d="M455,395 L505,345 L520,360 L470,410 Z" fill="none" stroke="#1D1D1D" stroke-width="8"/>
  </g>
</svg>